<svg width="96" height="96" xmlns="http://www.w3.org/2000/svg" xmlns:xlink="http://www.w3.org/1999/xlink" overflow="hidden"><defs><clipPath id="clip0"><rect x="335" y="141" width="96" height="96"/></clipPath></defs><g clip-path="url(#clip0)" transform="translate(-335 -141)"><path d="M379 185.1C376.9 187.2 375.3 189.5 374.3 191.7 366.9 182.9 362.2 175.1 362.1 171 362.5 170.5 363 170 363.5 169.5 364 169 364.5 168.6 365 168.1 369 168.3 376.8 172.9 385.7 180.4 383.4 181.4 381.1 183 379 185.1ZM363 203C360.7 204 358.5 205.6 356.4 207.7 356.3 207.8 356.3 207.8 356.2 207.9 351.4 197.9 352.2 185.7 358.4 175.8 355.7 183.6 357.5 193.6 363 203L363 203ZM401.9 162.2C401.8 162.3 401.8 162.3 401.7 162.4 399.6 164.5 398 166.8 397 169L397 169C387.6 163.5 377.5 161.7 369.8 164.4 379.7 158.2 391.9 157.4 401.9 162.2ZM416.1 217.9 386.1 187.9C385.9 187.7 385.7 187.6 385.5 187.4 387.3 186.1 389.1 185.3 390.4 185.2 390.5 183.2 392.1 180.5 394.5 178 397 175.5 399.7 174 401.7 173.9 401.8 171.9 403.4 169.2 405.8 166.7 408.2 164.3 411 162.8 412.9 162.6 398.9 149.9 377.2 150.1 362 162.6 360.5 161.6 358.4 161.8 357 163.1 355.7 164.4 355.5 166.5 356.5 168.1 344 183.3 343.8 205 356.5 219.1 356.7 217.1 358.2 214.4 360.6 212 363.1 209.5 365.8 208 367.8 207.9 367.9 205.9 369.5 203.2 371.9 200.7 374.4 198.2 377.1 196.7 379.1 196.6 379.2 195.2 380 193.4 381.4 191.5 381.5 191.7 381.7 191.9 381.9 192.1L411.9 222.1C412.5 222.7 413.3 223 414 223 414.7 223 415.5 222.7 416.1 222.1 417.3 221 417.3 219 416.1 217.9Z" fill="#00B0F0"/></g></svg>