<svg width="96" height="96" xmlns="http://www.w3.org/2000/svg" xmlns:xlink="http://www.w3.org/1999/xlink" overflow="hidden"><defs><clipPath id="clip0"><rect x="459" y="132" width="96" height="96"/></clipPath></defs><g clip-path="url(#clip0)" transform="translate(-459 -132)"><path d="M463 177 481 177 481 183 463 183Z" fill="#FF0000"/><path d="M533 177 551 177 551 183 533 183Z" fill="#FF0000"/><path d="M529 180C529 192.15 519.15 202 507 202 494.85 202 485 192.15 485 180 485 167.85 494.85 158 507 158 519.15 158 529 167.85 529 180Z" fill="#FF0000"/><path d="M504 206 510 206 510 224 504 224Z" fill="#FF0000"/><path d="M504 136 510 136 510 154 504 154Z" fill="#FF0000"/><path d="M490.687 200.454 477.959 213.181 473.717 208.939 486.445 196.211Z" fill="#FF0000"/><path d="M540.283 151.059 527.555 163.786 523.312 159.544 536.04 146.816Z" fill="#FF0000"/><path d="M490.785 159.445 486.542 163.688 473.815 150.96 478.057 146.718Z" fill="#FF0000"/><path d="M540.184 209.038 535.941 213.281 523.213 200.553 527.456 196.31Z" fill="#FF0000"/></g></svg>