<svg width="96" height="96" xmlns="http://www.w3.org/2000/svg" xmlns:xlink="http://www.w3.org/1999/xlink" overflow="hidden"><defs><clipPath id="clip0"><rect x="278" y="115" width="96" height="96"/></clipPath></defs><g clip-path="url(#clip0)" transform="translate(-278 -115)"><path d="M356.2 162.9C355.9 162.9 355.5 162.9 355.2 162.9 355.2 162.9 355.2 162.9 355.2 162.9 355.2 158 352.8 153.5 348.9 150.7 344.9 147.9 339.8 147.2 335.2 148.8 331.4 141.4 323 137.6 315 139.5 307 141.4 301.2 148.6 301.2 156.9 301.2 156.9 301.2 157 301.2 157.1 295.7 156.2 290.2 158.5 286.8 162.9 283.5 167.4 282.9 173.3 285.2 178.3 287.6 183.3 292.6 186.6 298.1 186.9L298.1 187 356.1 187C362.7 187 368.1 181.6 368.1 175 368.1 168.4 362.8 162.9 356.2 162.9Z" stroke="#2F5597" stroke-width="2" fill="#8FAADC"/></g></svg>