<svg width="40" height="41" viewBox="0 0 40 41" fill="none" xmlns="http://www.w3.org/2000/svg">
<g clip-path="url(#clip0_67_111)">
<path d="M22.1258 29.1873C23.0536 29.1189 24.17 29.1059 24.6981 29.1119C24.9464 29.1276 25.1964 29.1051 25.4331 29.0457C25.6699 28.9864 25.8885 28.8913 26.076 28.7663C26.2773 28.6359 26.443 28.4766 26.5635 28.2975C26.684 28.1183 26.757 27.9229 26.7783 27.7222C26.7996 27.5216 26.7688 27.3197 26.6877 27.1282C26.6065 26.9366 26.4766 26.7591 26.3053 26.6058L21.9588 22.8341C19.2847 20.5054 18.1773 18.9787 16.8756 15.6837L15.0875 15.9135C15.3446 18.3025 16.1983 20.8178 17.082 22.1546C14.8767 21.9595 12.5926 21.2941 10.0329 20.4931L9.1582 21.7019C13.0368 23.7086 15.9278 24.7218 19.4301 25.2332L21.6629 27.1638C19.9657 27.6604 18.416 28.4104 17.1049 29.3698L18.5912 30.1196C19.6722 29.6262 20.8757 29.3088 22.1258 29.1873V29.1873Z" fill="#040000"/>
<path d="M26.5597 29.5234C25.8969 30.1761 26.0542 31.1144 26.9111 31.6193C27.7679 32.1241 28.9998 32.0043 29.6626 31.3516C30.3254 30.699 30.1681 29.7607 29.3113 29.2558C28.4544 28.751 27.2225 28.8708 26.5597 29.5234Z" fill="#040000"/>
</g>
<path d="M11.5133 1C13.4144 1.04137 15.3021 1.43603 17.1536 1.73904C19.7839 2.16948 22.4355 2.43934 24.9157 3.26584C26.2961 3.72584 27.1952 4.19233 27.7093 5.30428C28.1443 6.24533 28.2657 7.21573 28.1997 8.20763C28.0638 10.2528 25.9723 11.0759 23.5723 11.4846C22.6829 11.636 21.8052 11.8537 20.9067 11.9678C20.5175 12.0172 19.9955 12.114 19.7659 12.386C19.3413 12.8891 19.7279 14.1072 20.0538 14.5788C20.866 15.7543 21.933 16.7627 22.5541 18.0181C22.9095 18.7365 23.0285 19.4528 23.0285 20.2149C23.0285 20.7129 23.1577 21.328 22.9166 21.7986C22.4989 22.6139 21.6066 23.397 20.9174 24.0969" stroke="black" stroke-linecap="round"/>
<defs>
<clipPath id="clip0_67_111">
<rect width="24.4844" height="26.1774" fill="white" transform="matrix(-0.712544 0.701627 -0.861574 -0.507633 40 23.821)"/>
</clipPath>
</defs>
</svg>
