<svg width="42" height="42" viewBox="0 0 42 42" fill="none" xmlns="http://www.w3.org/2000/svg">
<path d="M16.5337 35.9056C16.6024 34.2113 17.4381 32.4048 17.8474 31.7134L20.6737 32.5283C20.0741 33.2125 18.8635 34.8632 18.8177 35.9928C18.7719 37.1223 19.4454 39.3164 19.7879 40.2722L18.0463 40.9128C17.5135 39.9497 16.465 37.5999 16.5337 35.9056Z" fill="black" stroke="black"/>
<path d="M24.8424 35.8424C24.6028 34.2734 23.7264 32.6623 23.3181 32.0528L21.1043 33.0392C21.6668 33.6265 22.8318 35.0625 22.9915 36.1085C23.1512 37.1546 22.8403 39.2482 22.6649 40.1642L24.1529 40.6184C24.4825 39.6802 25.0819 37.4115 24.8424 35.8424Z" fill="black" stroke="black"/>
<path d="M15 26.8767C15.7804 25.8417 17.9918 24.4328 18.8048 24.2891H22.4285C23.4041 24.2891 25.3577 26.4455 26.3333 26.8767C27.1138 27.2218 29.1788 25.6548 29.6666 24.936L30.3333 25.5829C29.5203 26.3017 28.4634 27.9118 28.0731 28.6019C27.6829 29.2919 26.6097 29.1769 26.1219 29.0331L23.6829 27.7393V32.0521H17.3414V27.7393C16.8536 28.0268 15.7804 28.6881 15.3902 29.0331C15 29.3782 13.9268 28.8894 13.439 28.6019L11.6666 25.5829L12.3333 24.936C12.8211 25.9423 14.2195 27.9118 15 26.8767Z" fill="black" stroke="black"/>
<ellipse cx="21" cy="21.0545" rx="2" ry="1.94076" fill="black"/>
<path d="M41 14.7164C34.3333 4.36568 17 -10.1253 1 14.7164H41Z" fill="black" stroke="black"/>
<path d="M1.66663 14.5853L15 28.1706H27L39.6666 14.5853" stroke="black"/>
</svg>
