<svg width="40" height="40" viewBox="0 0 40 40" fill="none" xmlns="http://www.w3.org/2000/svg">
<path d="M35.8304 23.988H23.1661L17.8253 30.1932C18.714 29.8745 19.666 29.7723 20.6022 29.895C21.5383 30.0177 22.4318 30.3618 23.2084 30.8987V30.8987C23.8383 31.3086 24.5736 31.5268 25.325 31.5268C26.0765 31.5268 26.8118 31.3086 27.4416 30.8987C28.1429 30.4125 28.9415 30.0846 29.7821 29.9378C30.6227 29.791 31.4852 29.8288 32.3098 30.0485C34.9873 28.3623 36.9239 26.341 36.9239 24.7959C36.9239 24.3408 36.4336 23.988 35.8304 23.988Z" fill="#040000"/>
<path d="M2.9809 23.988V31.4667C3.31604 31.5062 3.65466 31.5062 3.9898 31.4667C4.56328 31.4089 5.11232 31.2048 5.5843 30.874C6.56949 30.1938 7.73835 29.8294 8.93557 29.8294C10.1328 29.8294 11.3016 30.1938 12.2868 30.874C12.6061 31.1009 12.9651 31.266 13.3451 31.3608C13.6494 31.4409 13.9619 31.4858 14.2764 31.4949C14.4292 31.503 14.5823 31.503 14.735 31.4949L21.1836 23.988H2.9809Z" fill="#040000"/>
<path d="M15.6592 19.7938C17.7125 20.5848 19.8397 21.1685 22.009 21.5364L23.5188 19.7726C19.6737 18.291 16.5341 14.9715 15.7016 14.2871C15.3414 13.9763 14.9194 13.7454 14.4634 13.6098C13.7209 13.3856 12.9203 13.4599 12.2318 13.817C11.5433 14.1741 11.0214 14.7857 10.777 15.5218L8.3288 23.0004H14.601L15.6592 19.7938Z" fill="#040000"/>
<path d="M36.8569 6.42016C36.3831 6.13502 35.8224 6.03013 35.2775 6.12472C34.7327 6.21931 34.2401 6.50704 33.8901 6.9352L30.4401 11.0449C30.1555 11.3841 29.98 11.8013 29.9366 12.242C29.8931 12.6826 29.9838 13.126 30.1967 13.5143L21.1871 23.9879H23.159L31.3079 14.502C31.7441 14.6828 32.2263 14.7212 32.6856 14.6116C33.1449 14.502 33.5579 14.25 33.8654 13.8917L37.3613 9.72557C37.5664 9.48391 37.7172 9.20106 37.8037 8.89612C37.8901 8.59118 37.91 8.27125 37.8622 7.95793C37.8144 7.64462 37.6999 7.34521 37.5265 7.07992C37.353 6.81464 37.1247 6.58965 36.8569 6.42016V6.42016Z" fill="#040000"/>
<path d="M15.8886 12.2586C17.5446 12.2586 18.8871 10.9161 18.8871 9.2601C18.8871 7.60407 17.5446 6.2616 15.8886 6.2616C14.2326 6.2616 12.8901 7.60407 12.8901 9.2601C12.8901 10.9161 14.2326 12.2586 15.8886 12.2586Z" fill="#040000"/>
</svg>
