<svg width="40" height="40" viewBox="0 0 40 40" fill="none" xmlns="http://www.w3.org/2000/svg">
<path d="M8.11698 9.79622C9.63663 9.79622 10.8685 8.5643 10.8685 7.04466C10.8685 5.52501 9.63663 4.29309 8.11698 4.29309C6.59734 4.29309 5.36542 5.52501 5.36542 7.04466C5.36542 8.5643 6.59734 9.79622 8.11698 9.79622Z" fill="#040000"/>
<path d="M13.4721 19.6702C14.2145 18.3145 14.7383 16.8502 15.0242 15.3312L18.1427 17.603L23.4835 15.2395C23.3034 14.7934 22.9969 14.4096 22.6016 14.1353L15.3205 8.81916C15.0322 8.609 14.7053 8.4577 14.3584 8.37392C14.0116 8.29013 13.6517 8.27551 13.2992 8.33087C12.9467 8.38623 12.6085 8.5105 12.3041 8.69658C11.9996 8.88265 11.7348 9.12689 11.5248 9.41533C11.0977 10.0943 10.9509 10.9126 11.1156 11.6977C11.613 14.9008 11.5671 18.5026 10.8687 20.8238L13.4721 19.6702Z" fill="#040000"/>
<path d="M37.1885 20.9752L7.81376 33.9887C7.57896 34.0901 7.31479 34.1001 7.07296 34.0169L4.85054 33.2197L4.17676 35.1034L6.39918 35.9007C7.12388 36.1616 7.92133 36.1325 8.62512 35.8196L37.9998 22.8061L37.1885 20.9752ZM7.40808 34.0734H7.30578H7.42219H7.40808Z" fill="#040000"/>
<path d="M23.0355 18.1744L32.1722 14.1105L31.5654 12.7383L9.40118 22.5769L10.0079 23.9491L16.2025 21.2011C16.2025 21.2223 16.1037 21.374 15.3947 22.5628C14.6856 23.7516 15.2924 25.1344 16.4847 25.3849C17.677 25.6354 22.1713 26.5314 22.1713 26.5314L22.8098 26.2492L25.6319 24.9898L20.0617 22.6263L23.0355 18.1744Z" fill="#040000"/>
</svg>
