<svg width="40" height="40" viewBox="0 0 40 40" fill="none" xmlns="http://www.w3.org/2000/svg">
<g clip-path="url(#clip0_67_237)">
<path d="M20.5508 4.73701L18.9927 4.1781L13.5235 8.31641C13.0748 8.15545 12.5796 7.96884 12.0125 7.76542C11.0875 7.43363 10.1654 7.38171 9.62524 7.4848C9.0424 7.59655 8.86977 8.04285 9.23652 8.48773C9.57351 8.90844 10.3032 9.44901 11.2185 9.77735C11.7897 9.98225 12.288 10.161 12.7357 10.3126L13.9955 16.8661L15.5536 17.425L15.7948 11.2765C16.7706 11.547 17.7901 11.7943 19.4026 12.2033L20.1926 13.9708L20.8423 14.2039L21.1796 12.2185L22.3085 10.4811L21.6588 10.2481L19.8383 11.0852C18.347 10.3764 17.4091 9.91406 16.4846 9.50901L20.5508 4.73701Z" fill="#040000"/>
</g>
<g clip-path="url(#clip1_67_237)">
<path d="M33.0425 10.1254L29.99 9.19963L26.084 12.9721L27.7909 13.7523L33.0425 10.1254Z" fill="#040000"/>
<path d="M34.5262 13.4355L29.2862 15.7657L29.8118 16.1687L30.8875 16.9488L37.0272 15.3464L34.5262 13.4355Z" fill="#040000"/>
<path d="M25.0566 20.0655C25.1062 19.9651 25.1586 19.8654 25.2054 19.7644C25.6086 18.877 25.9836 17.9944 26.3444 17.1086C26.5251 16.6667 26.7021 16.223 26.8757 15.7775L27.1353 15.112L27.3822 14.4608L27.3871 14.4419L25.7038 13.6987C23.521 17.4435 19.7009 22.0591 19.5382 22.096L13.5666 23.723C13.2479 23.8095 12.9564 23.9694 12.7177 24.1887V24.1887L12.6902 24.2139C10.8485 25.9582 8.48315 27.6814 7.1229 28.3728C6.43117 28.7287 5.69739 29.049 4.96775 29.3531L5.37843 30.6559C6.42915 30.4499 7.46795 30.192 8.49062 29.8831C10.6757 29.1586 12.8192 28.3248 14.9124 27.3853C14.9124 27.3853 18.5189 26.3944 21.8502 25.4459C25.4939 24.4035 29.1047 20.2441 30.2999 17.5095L28.8034 16.4224C27.7287 17.7895 26.4687 19.0145 25.0566 20.0655V20.0655Z" fill="#040000"/>
<path d="M13.5307 19.6848C13.3248 19.7093 13.1267 19.7754 12.9497 19.8786C12.7726 19.9819 12.6206 20.12 12.5039 20.2837C12.3872 20.4475 12.3083 20.633 12.2727 20.8281C12.237 21.0232 12.2453 21.2233 12.297 21.4151C12.3487 21.6069 12.4427 21.7859 12.5726 21.9403C12.7025 22.0947 12.8654 22.221 13.0505 22.3106C13.2355 22.4002 13.4385 22.4511 13.6458 22.46C13.8531 22.4688 14.06 22.4355 14.2527 22.362L19.1484 21.1596L18.4264 18.4824L13.5307 19.6848Z" fill="#040000"/>
</g>
<circle cx="9" cy="23" r="2" fill="black"/>
<path d="M26.4357 14.2164C26.5235 14.0204 26.6851 13.8498 26.8161 13.6814C26.8638 13.6202 26.866 13.5332 26.922 13.4772" stroke="black" stroke-width="1.5" stroke-linecap="round"/>
<path d="M29.4316 17.2316C29.606 17.0573 29.8702 16.9753 30.0055 16.7647C30.0757 16.6556 30.1583 16.5599 30.2292 16.4535" stroke="black" stroke-width="1.5" stroke-linecap="round"/>
<path d="M30.0188 16.4129C29.9415 16.5277 29.8415 16.621 29.7393 16.713C29.7159 16.734 29.7011 16.7577 29.6705 16.7685C29.65 16.7758 29.6305 16.7924 29.6121 16.8038C29.5873 16.8192 29.5585 16.8355 29.5365 16.8546C29.5165 16.8719 29.5404 16.8222 29.5436 16.8154C29.5509 16.7997 29.5547 16.7826 29.5653 16.7688C29.5992 16.7244 29.6391 16.6928 29.6657 16.6419C29.6844 16.6061 29.7088 16.5732 29.7266 16.5375C29.737 16.5167 29.7595 16.5019 29.7723 16.4817C29.776 16.4759 29.784 16.4416 29.7797 16.4667C29.7727 16.5069 29.7257 16.5567 29.7035 16.59C29.6784 16.6276 29.6491 16.6615 29.6228 16.6983C29.6012 16.7287 29.5727 16.7457 29.5422 16.7657C29.5205 16.7799 29.5025 16.8002 29.4815 16.8156C29.4716 16.823 29.4508 16.851 29.4525 16.8388C29.4583 16.7953 29.5013 16.7567 29.5309 16.7288C29.5741 16.6881 29.6252 16.6576 29.664 16.612C29.6924 16.5786 29.7203 16.5449 29.7486 16.5116C29.7805 16.4741 29.8107 16.434 29.8533 16.4078C29.8652 16.4004 29.8825 16.3803 29.8868 16.3672" stroke="black" stroke-width="1.5" stroke-linecap="round"/>
<path d="M27.0195 13.1172C27.0195 13.1739 26.992 13.2304 26.9705 13.2826C26.9595 13.3092 26.9421 13.3299 26.926 13.3531C26.8969 13.3949 26.8381 13.4161 26.8004 13.4497C26.7776 13.4699 26.7577 13.4854 26.7422 13.5109C26.7268 13.5362 26.7212 13.566 26.7131 13.5942C26.7023 13.632 26.6807 13.6653 26.6643 13.7007C26.6419 13.7493 26.6151 13.7968 26.5801 13.8379C26.5496 13.8737 26.5258 13.9057 26.5057 13.9492C26.4891 13.985 26.4726 14.0197 26.4549 14.0551C26.4441 14.0768 26.4452 14.0615 26.4557 14.049C26.4786 14.0222 26.5019 13.9956 26.525 13.969C26.6028 13.879 26.6527 13.7781 26.7162 13.6793C26.7463 13.6323 26.7721 13.5806 26.7932 13.5291C26.8008 13.5105 26.8106 13.4931 26.8184 13.4746C26.8223 13.4653 26.8408 13.4321 26.8221 13.4523C26.7981 13.478 26.7691 13.4983 26.747 13.5256C26.7403 13.5339 26.7291 13.5375 26.7235 13.5469C26.7019 13.5829 26.6752 13.6139 26.6521 13.6484C26.6122 13.7084 26.5918 13.777 26.5625 13.8424C26.5427 13.8868 26.5254 13.9327 26.5087 13.9783C26.4942 14.0179 26.4881 14.057 26.4783 14.0981C26.4723 14.1231 26.4518 14.1843 26.4657 14.2109C26.475 14.2287 26.4995 14.2416 26.5169 14.2483C26.543 14.2582 26.5624 14.2709 26.5862 14.2852C26.6111 14.3001 26.6395 14.3069 26.6641 14.3223C26.6722 14.3274 26.6796 14.3297 26.6893 14.3279C26.6965 14.3266 26.7051 14.3124 26.7084 14.3079C26.7304 14.2777 26.7483 14.2442 26.7678 14.2122C26.8001 14.1594 26.8198 14.1052 26.8485 14.0516C26.8748 14.0027 26.9054 13.9543 26.939 13.9104C26.985 13.8505 27.0186 13.79 27.0499 13.7218C27.0802 13.6559 27.1021 13.5877 27.1367 13.5234" stroke="black" stroke-width="1.5" stroke-linecap="round"/>
<defs>
<clipPath id="clip0_67_237">
<rect width="16.0084" height="16.5814" fill="white" transform="matrix(0.366457 -0.930435 0.941277 0.337637 4.98511 14.8948)"/>
</clipPath>
<clipPath id="clip1_67_237">
<rect width="33.0345" height="31.6907" fill="white" transform="matrix(0.974153 0.225891 -0.246739 0.969082 7.81934 1.8269)"/>
</clipPath>
</defs>
</svg>
