<svg width="40" height="44" viewBox="0 0 40 44" fill="none" xmlns="http://www.w3.org/2000/svg">
<path d="M19.9911 17.3737C19.9911 17.3737 17.7864 21.2541 16.6469 23.3283C15.5604 25.3144 16.6716 27.3569 15.8779 29.7875C15.437 31.1386 14.4668 32.2251 13.3627 33.0893L15.4511 33.6326L16.2906 33.8513C17.8957 32.987 19.4056 31.382 20.3862 28.2882L23.2824 30.105L21.3422 35.1777L23.5964 35.7668L23.8892 35.8444L27.3816 30.1685C27.5884 29.8317 27.6723 29.4336 27.6189 29.042C27.5655 28.6503 27.3782 28.2893 27.0888 28.0201L26.8242 27.7732L22.7603 24.0021L24.7676 20.4286C24.7676 20.4286 25.9176 21.9808 29.0607 22.6546C31.9075 23.2613 34.7614 22.3018 34.7614 22.3018L34.4086 20.4709C32.7267 20.6533 31.0262 20.4007 29.4699 19.7372C28.2529 19.2363 27.3533 18.0616 26.7572 16.2378C26.4044 15.1583 26.0093 14.5551 25.1239 14.0577C24.1785 13.5285 21.2435 13.1793 17.9451 14.1741C13.6096 15.4687 11.7012 19.2574 11.7012 19.2574L13.2816 20.2558C14.9043 18.6154 16.3118 17.8358 17.8393 17.5007C18.5404 17.3117 19.2727 17.2685 19.9911 17.3737V17.3737Z" fill="#040000"/>
<path d="M36.5218 37.6894L35.3506 38.3279C34.1158 39.0034 32.669 39.1802 31.3079 38.8217L23.346 36.7369L20.986 36.1019L15.5675 34.6909L11.994 33.7631L7.63739 32.6272C6.25296 32.2667 5.06349 31.3809 4.3214 30.1578L3.48888 28.7997L1.78149 29.858L2.61402 31.2161C3.62604 32.8786 5.24553 34.0819 7.12941 34.5709L30.7999 40.7655C32.6526 41.2531 34.6216 41.0133 36.3031 40.0952L37.4742 39.4567L36.5218 37.6894Z" fill="#040000"/>
<path d="M29.0972 12.1818C30.0626 11.0081 29.8938 9.27415 28.7202 8.30876C27.5466 7.34338 25.8126 7.51218 24.8472 8.68578C23.8818 9.85939 24.0506 11.5934 25.2242 12.5588C26.3978 13.5242 28.1318 13.3554 29.0972 12.1818Z" fill="#040000"/>
<path d="M14.674 7.4489L13.2134 7.80535L11.9596 7.15569V5.49992L13.2134 4.85026L14.674 5.20671L15 4.09712L13.8904 3.82691L14.1788 2.8093L12.9689 2.51034L12.5802 3.8499L11.3264 4.49956L9.79048 3.67168V2.37236L10.8625 1.38925L9.97228 0.578613L9.16357 1.32026L8.35487 0.578613L7.46466 1.38925L8.53667 2.37236V3.67168L6.96941 4.49956L5.71561 3.8499L5.352 2.51034L4.14835 2.8093L4.44299 3.82691L3.33337 4.09712L3.65936 5.20671L5.12005 4.85026L6.37385 5.49992V7.16144L5.12005 7.8111L3.65936 7.45465L3.33337 8.56424L4.44299 8.83445L4.14835 9.84631L5.35827 10.1453L5.74695 8.80571L7.00076 8.15605L8.53667 8.98393V10.2832L7.46466 11.2664L8.35487 12.077L9.16357 11.3353L9.97228 12.077L10.8562 11.2664L9.79048 10.2832V8.98393L11.3577 8.1503L12.6115 8.79996L13.0002 10.1395L14.1788 9.84631L13.8842 8.8287L14.9938 8.55849L14.674 7.4489ZM7.59631 5.49992L9.16357 4.66629L10.7308 5.49992V7.15569L9.16357 7.98932L7.59631 7.15569V5.49992Z" fill="black"/>
</svg>
