<svg width="40" height="40" viewBox="0 0 40 40" fill="none" xmlns="http://www.w3.org/2000/svg">
<path d="M21.6139 27.0567L21.755 27.1096C20.5344 26.6686 19.3139 26.2876 18.1356 25.949C19.3068 26.2841 20.478 26.658 21.6139 27.0567Z" fill="#040000"/>
<path d="M14.4633 23.8857L15.8744 24.2738C16.4882 24.4396 17.1302 24.6265 17.7899 24.7994L18.3049 22.3935L21.8044 23.0426L21.7655 26.0341C23.1754 26.5218 24.5508 27.104 25.8823 27.7767L27.1029 21.2647C27.1673 20.8867 27.1493 20.4992 27.05 20.1288L25.0463 12.6713C25.0463 12.6713 26.7431 11.8106 28.842 9.49646C30.3231 7.81286 31.4968 5.8821 32.3097 3.79226L30.6235 2.99854C30.6235 2.99854 29.1136 5.29151 27.4662 6.62143C26.2865 7.56829 24.9804 8.34598 23.5858 8.93204C22.0619 9.55996 19.9982 9.95858 18.252 10.6959C17.1015 11.2021 16.0318 11.8748 15.0771 12.6925C14.0576 13.5744 12.6078 15.0066 11.4754 18.4285L13.2886 19.1657C15.0524 16.0932 17.0314 14.8267 19.9488 14.227L21.0071 18.1815L16.9821 18.1992H16.6293C16.1983 18.1961 15.7816 18.3537 15.4607 18.6414C15.1397 18.9291 14.9376 19.3261 14.8937 19.7549L14.4422 23.8787L14.4633 23.8857Z" fill="#040000"/>
<path d="M33.622 35.5655C32.7965 34.3449 30.4119 31.3323 25.6848 28.8277V28.803C24.4159 28.1428 23.1028 27.5711 21.755 27.0921V27.0921L21.6139 27.0392C20.478 26.6406 19.3103 26.2702 18.1356 25.9174C16.7246 25.5152 15.3947 25.166 14.2094 24.8379C10.717 23.9737 7.50684 23.4269 5.422 23.4445C5.25972 23.4445 5.10098 23.4445 4.94929 23.4445C4.75069 23.4546 4.55964 23.5238 4.40063 23.6433C4.24161 23.7627 4.12189 23.9269 4.0568 24.1148L3.17488 26.6476C3.10911 26.8352 3.10084 27.0381 3.15112 27.2304C3.20139 27.4228 3.30794 27.5957 3.4571 27.7271C5.97936 29.9601 12.5655 33.1597 18.7142 35.3292C26.1928 37.9502 31.5901 36.8355 33.3504 36.324C33.4259 36.302 33.4951 36.2625 33.5523 36.2086C33.6096 36.1547 33.6532 36.0881 33.6798 36.0141C33.7063 35.94 33.7148 35.8608 33.7048 35.7828C33.6948 35.7049 33.6664 35.6304 33.622 35.5655V35.5655Z" fill="#040000"/>
<path d="M20.2231 8.44999C21.7357 8.32537 22.8609 6.99816 22.7362 5.48558C22.6116 3.97301 21.2844 2.84785 19.7718 2.97247C18.2593 3.09709 17.1341 4.4243 17.2587 5.93688C17.3834 7.44945 18.7106 8.57461 20.2231 8.44999Z" fill="#040000"/>
</svg>
