<svg width="55" height="54" viewBox="0 0 55 54" fill="none" xmlns="http://www.w3.org/2000/svg">
<g clip-path="url(#clip0_67_145)">
<path d="M45.8377 39.3253C44.8344 39.8454 43.644 40.1139 42.4317 40.0936C41.1816 40.1106 39.9559 39.8275 38.9274 39.2844C37.4732 38.5274 35.7557 38.1203 33.996 38.1154C32.2363 38.1106 30.515 38.5082 29.0536 39.257C28.9284 39.327 28.7986 39.3919 28.6648 39.4517C27.7348 39.851 26.683 40.0548 25.6164 40.0424C24.7031 40.0462 23.7993 39.9007 22.9658 39.6156C22.6594 39.5084 22.3688 39.3767 22.0986 39.2229C20.6454 38.4386 18.9028 38.0283 17.1237 38.0517C15.3676 38.0258 13.646 38.4263 12.207 39.1956C12.122 39.2434 12.0326 39.2878 11.9432 39.3288L13.1143 40.9916C13.3065 40.9028 13.4943 40.8107 13.6686 40.7116C14.6785 40.1787 15.8833 39.9038 17.1103 39.9263C18.3605 39.9094 19.5861 40.1924 20.6146 40.7355C21.9248 41.4463 23.4786 41.8487 25.0844 41.8931C25.2454 41.8931 25.4063 41.8931 25.5717 41.8931C26.999 41.9035 28.4074 41.643 29.6705 41.135C29.9499 41.0207 30.2188 40.8918 30.475 40.7492C31.4849 40.2163 32.6897 39.9414 33.9168 39.9639C35.1669 39.9471 36.3924 40.2302 37.4211 40.7731C38.8224 41.5013 40.4683 41.9066 42.1626 41.9405C43.8568 41.9744 45.5282 41.6355 46.9775 40.9643L45.8377 39.3253Z" fill="#040000"/>
</g>
<path d="M13.6892 33.4854L41.585 30.2882C41.8067 30.2599 42.0084 30.1205 42.1504 29.8973L43.4411 27.8119L44.8104 29.3787L43.5198 31.4641C43.0993 32.145 42.4912 32.5672 41.8223 32.6426L13.9265 35.8398L13.6892 33.4854ZM41.9265 30.1457L42.0028 30.0877L41.916 30.1537L41.9265 30.1457Z" fill="#040000"/>
<g clip-path="url(#clip1_67_145)">
<path d="M20.1937 26.3505L21.4252 27.0508C21.9885 25.7986 22.674 24.6505 23.464 23.6365C24.0638 22.8763 24.7354 22.2226 25.4619 21.6914C25.6372 23.2086 25.6845 24.747 25.603 26.2781C25.4756 28.3712 25.2232 30.4477 24.8484 32.4879L20.8909 35.882L22.4465 37.7452L26.8586 35.3575C27.0096 35.2735 27.1455 35.1481 27.2573 34.9894C27.3691 34.8307 27.4544 34.6424 27.5073 34.4369L27.5968 34.0946L28.7308 29.7849L32.0019 30.0166L32.6948 36.2772L34.3937 34.9262L34.628 28.1791C34.6411 27.8029 34.5555 27.4322 34.3857 27.1303C34.2159 26.8284 33.9725 26.614 33.697 26.5235L33.4435 26.4417L29.5809 25.1708L29.5004 21.4545C30.1865 21.6883 30.9047 21.7024 31.5957 21.4956C32.2867 21.2887 32.9307 20.8669 33.4747 20.2649C34.4978 19.1255 35.2877 17.6621 35.7714 16.0101L34.5789 15.1937C33.8322 16.6335 32.7616 17.8896 31.8245 18.2868C31.0347 18.6114 30.0095 18.0708 29.0344 17.0331C28.5782 16.4926 27.9824 16.2067 27.3712 16.2349C25.5135 16.2957 23.7918 18.8184 23.0766 19.9093C22.3729 20.9742 21.7438 22.1221 21.1971 23.3386C20.8129 24.3121 20.4777 25.3183 20.1937 26.3505V26.3505Z" fill="#040000"/>
<path d="M28.2448 14.4212C29.1882 13.6028 29.4529 11.9247 28.8361 10.6731C28.2193 9.42141 26.9545 9.07017 26.0111 9.88855C25.0677 10.7069 24.803 12.385 25.4198 13.6367C26.0366 14.8884 27.3014 15.2396 28.2448 14.4212Z" fill="#040000"/>
</g>
<path d="M54 9.06995C50.349 9.06995 46.7765 9.87835 43.3752 11.6859C41.9756 12.4298 40.5471 13.0883 39.1537 13.8509C38.8468 14.0189 38.5594 14.2511 38.2482 14.4044C38.1425 14.4565 38.0236 14.4325 37.9237 14.4988C37.2665 14.9348 36.4552 14.3926 35.8099 14.8432C35.6907 14.9264 35.5319 15.1033 35.4205 15.2122C35.2616 15.3676 35.0311 15.5693 35.0311 15.8437C35.0311 16.0504 35.03 16.1879 35.1671 16.3193C35.3454 16.4902 35.6057 16.7597 35.8099 16.8564C36.4725 17.1704 36.3662 15.2837 36.3662 14.753" stroke="black" stroke-width="0.5" stroke-linecap="round"/>
<defs>
<clipPath id="clip0_67_145">
<rect width="50.683" height="38.7172" fill="white" transform="translate(0 8.151)"/>
</clipPath>
<clipPath id="clip1_67_145">
<rect width="32.513" height="37.0483" fill="white" transform="matrix(0.782673 -0.622434 0.411699 0.91132 7.41711 20.2372)"/>
</clipPath>
</defs>
</svg>
