<svg width="40" height="40" viewBox="0 0 40 40" fill="none" xmlns="http://www.w3.org/2000/svg">
<g clip-path="url(#clip0_67_182)">
<path d="M12.9031 25.3659C12.9561 25.0121 12.9289 24.6508 12.8234 24.309C12.7179 23.9671 12.5369 23.6533 12.2937 23.3909C12.0505 23.1284 11.7515 22.9241 11.4186 22.7929C11.0857 22.6617 10.7276 22.607 10.3708 22.633C10.014 22.6589 9.66754 22.7648 9.35716 22.9428C9.04679 23.1207 8.78042 23.3662 8.57777 23.6611C8.37513 23.956 8.2414 24.2926 8.18649 24.6462C8.13158 24.9997 8.15689 25.3611 8.26055 25.7035C8.39905 26.2398 8.72135 26.7105 9.17127 27.0335C9.62119 27.3566 10.1702 27.5116 10.7226 27.4714C11.2751 27.4312 11.7959 27.1985 12.1944 26.8137C12.5928 26.429 12.8436 25.9166 12.9031 25.3659V25.3659Z" fill="#040000"/>
<path d="M19.3909 24.4411C19.7912 23.3467 20.0019 22.1921 20.0141 21.0269C20.0278 20.482 20.0123 19.9366 19.9676 19.3933C19.9547 19.2252 19.8781 18.403 19.7495 17.7705L18.0253 17.9556C18.0311 19.2234 17.8172 20.4827 17.393 21.6775C16.7757 23.2178 15.8641 24.425 14.4367 25.8163C14.1602 26.0844 13.9531 26.4158 13.8332 26.7819C13.7134 27.148 13.6844 27.5377 13.7488 27.9175C13.8131 28.2973 13.9689 28.6557 14.2027 28.9618C14.4365 29.2679 14.7413 29.5125 15.0908 29.6746L22.2623 32.9786C22.5566 33.1156 22.8759 33.1906 23.2004 33.1992C23.5249 33.2077 23.8477 33.1495 24.1488 33.0283V33.0283L30.1112 30.6786L36.5898 28.1568L35.9891 26.0694L29.1465 27.3571L23.6755 28.3981L18.6455 26.0715C18.9245 25.5425 19.1734 24.9982 19.3909 24.4411V24.4411Z" fill="#040000"/>
</g>
<rect x="9.40039" y="5.44092" width="1.55361" height="31.0722" transform="rotate(-74.9593 9.40039 5.44092)" fill="black"/>
<path d="M19.5061 7.91052C19.5061 9.91609 19.5061 11.9217 19.5061 13.9272C19.5061 14.9416 19.5061 15.9559 19.5061 16.9703C19.5061 17.6768 19.4964 18.381 19.5755 19.0844C19.6664 19.8922 19.8781 20.6622 20.0457 21.4549C20.1953 22.1623 20.2333 22.851 20.2731 23.569C20.3073 24.1841 20.4427 24.7706 20.4427 25.3902C20.4427 25.9234 20.4427 26.4566 20.4427 26.9898C20.4427 27.3495 20.4427 27.7093 20.4427 28.069C20.4427 28.3424 20.3529 28.5935 20.3387 28.863C20.3338 28.9555 20.2693 29.0421 20.2693 29.1405" stroke="black" stroke-width="0.5" stroke-linecap="round"/>
<path d="M18.5278 7.66064C18.3852 7.87803 18.5173 8.12406 18.6452 8.31595C18.8337 8.5987 19.2303 8.6747 19.5407 8.72454C19.6991 8.74996 19.8659 8.75326 20.0264 8.75326C20.122 8.75326 20.221 8.73842 20.3031 8.68669C20.4314 8.60585 20.5651 8.52084 20.6791 8.42038C20.709 8.39396 20.7835 8.33811 20.7835 8.29507" stroke="black" stroke-width="0.5" stroke-linecap="round"/>
<defs>
<clipPath id="clip0_67_182">
<rect width="32.3223" height="32.3223" fill="white" transform="translate(8.93811 40) rotate(-106.053)"/>
</clipPath>
</defs>
</svg>
